<svg fill="#262626" xmlns="http://www.w3.org/2000/svg" viewBox="0 0 20.929 31"><path d="M16 14.45v-.075c3-1.013 4.094-3.04 4.094-5.215 0-2.213-1.197-3.877-2.9-4.783C16.252 3.82 15.257 3.47 14 3.26V1c0-.552-.447-1-1-1h-1c-.553 0-1 .447-1 1v2.013c-.316-.007-.637-.013-.98-.013H8V1c0-.552-.447-1-1-1H6c-.553 0-1 .447-1 1v2H1c-.552 0-1 .448-1 1v1c0 .552.447 1 1 1h2v19H1c-.552 0-1 .447-1 1v1c0 .553.447 1 1 1h4v2c0 .553.447 1 1 1h1c.552 0 1-.447 1-1v-2h.86c.765 0 1.466-.03 2.14-.076V30c0 .553.447 1 1 1h1c.553 0 1-.447 1-1v-2.47c1.978-.41 3.43-1.064 4.462-1.887 1.522-1.23 2.467-2.97 2.467-5.18 0-3.153-1.93-5.252-4.93-6.014zM8 7.166c1-.074 1.334-.146 2.53-.146 2.5 0 4 1.05 4 2.897 0 1.814-1.468 3.082-4.363 3.082H8V7.166zm2.314 16.594c-.94 0-1.314 0-2.314-.07V17h2.237c2.755 0 4.875.88 4.875 3.344 0 2.572-2.298 3.417-4.798 3.417z"/></svg>