<svg fill="#262626" xmlns="http://www.w3.org/2000/svg" viewBox="0 0 544.251 544.252"><path d="M269.9 520.012c-57.668 0-111.892-21.743-152.683-61.224C76.387 419.27 53.9 366.715 53.9 310.806c0-39.25 10.595-77.043 30.64-109.294 2.538-4.084 4.26-8.686 6.085-13.558 2.67-7.128 5.43-14.5 11.006-20.513 5.996-6.462 14.55-10.974 22.82-15.337 5.17-2.728 10.056-5.304 14.11-8.22 10.92-7.85 22.74-14.73 35.137-20.448 2.715-3.195 1.78-22.858 1.16-35.91-1.263-26.534-2.567-53.973 8.124-64.364 1.83-1.777 4.16-2.718 6.736-2.718 8.266 0 19.92 10.583 34.64 31.456 10.718 15.2 20.563 32.56 21.945 38.692.768 3.407 7.203 10.63 10.286 11.546-.025-.01.21.03.792.03.94 0 2.246-.093 3.76-.2 2.37-.165 5.32-.372 8.762-.372 12.182 0 23.696 2.95 34.83 5.803 10.57 2.708 20.554 5.266 30.577 5.266h.004c.977 0 1.95-.025 2.898-.074 1.463-.078 5.915-2.21 8.215-3.935 7.288-5.47 18.32-17.45 30-30.133 24.665-26.784 40.39-43.047 50.765-43.047 3.01 0 5.597 1.34 7.285 3.77 5.5 7.916 7.727 13.728 8.822 23.032.12 1.014.267 2.147.43 3.398 1.954 15.1 6.006 46.393-8.023 88.05.688 5.41 2.893 17.586 6.682 22.473 26.433 34.106 43.513 86.942 43.513 134.607 0 55.91-22.486 108.464-63.315 147.982-40.79 39.482-95.013 61.225-152.68 61.225zM189.72 29.442c-.26 0-.33.045-.462.173-7.782 7.563-6.41 36.416-5.408 57.484 1.27 26.732 1.573 40.85-6.2 44.425-11.942 5.495-23.325 12.112-33.83 19.666-4.56 3.28-9.953 6.123-15.167 8.874-7.603 4.012-15.467 8.16-20.418 13.498-4.37 4.71-6.704 10.947-9.177 17.55-1.898 5.068-3.86 10.31-6.87 15.152C73.024 237.086 62.9 273.237 62.9 310.806c0 110.394 92.86 200.206 207 200.206 114.138 0 206.996-89.812 206.996-200.206 0-45.794-16.34-96.466-41.626-129.093-6.312-8.14-8.412-25.975-8.63-27.98l-.11-.997.325-.95c13.745-40.156 9.827-70.413 7.943-84.954-.167-1.29-.318-2.458-.44-3.502-.917-7.787-2.605-12.21-7.21-18.854-7.22.088-29.41 24.187-44.104 40.143-11.968 12.995-23.27 25.27-31.22 31.234-2.26 1.696-8.708 5.49-13.147 5.722-1.103.058-2.235.087-3.366.087h-.003c-11.158 0-22.165-2.82-32.81-5.548-10.596-2.714-21.55-5.52-32.598-5.52-3.13 0-5.904.194-8.135.35-1.682.118-3.134.22-4.388.22-1.36 0-2.417-.125-3.328-.394-6.73-1.982-15.155-12.1-16.53-18.203-.86-3.823-9.284-19.547-20.52-35.483-15.385-21.82-24.388-27.642-27.282-27.642zm-43.342 307.665c2.872-.99 13.376-.973-1.192-16.306 19.743 21.853 60.64-26.358 6.625-41.645-14.553-4.12-54.905-2.627-49.146 23.494 1.15 2.722 13.594 14.186 13.987 13.067-16.125-2.393-5.367 21.263 11.092 23.37 3.185.41 15.598-.933 18.634-1.98zm.922 30.42c-28.95-20.278-58.058 6.505-28.074 17.604 21.262 7.867 23.812 4.07 43.088 7.133 12.892 2.05 87.16 6.028 88.427-17.066-3.073.28-.336 6.105 0 0-22.88 2.073-46.522 6.937-56.488 8.854-7.403 1.425-15.094-6.26-24.295-9.433l-22.66-7.09zm130.466-149.523c20.125-1.15 36.992 24.537 36.992 24.537s-16.867 27.026-35.268 26.452c-18.402-.575-17.564-7.076-30.478-10.16-12.84-3.066 8.628-39.678 28.754-40.828zm-5.727 12.876c2.735-3.56 10.227 10.7 11.343 1.125.382-3.26-.766-4.792-13.226-4.602-12.458.192-18.017 27.144-10.158 31.63 6.06 3.456 10.46 9.374 8.54 1.73-1.608-6.383-.512-24.663 3.5-29.883zm-123.71-35.223c15.333 0 20.316 9.968 20.7 15.528.384 5.56-9.583 27.41-19.55 27.41-4.682.002-17.148-6.528-18.4-16.577-1.414-11.344 9.118-26.36 17.25-26.36zm-2.114 6.73c2.868-4.106-11.005 2.927-10.032 15.58.974 12.65 13.893 18.328 11.06 14.466-10.454-14.236-2.736-32.595-5.553-27.33 2.824 2.128 8.767-2.472 2.064-3.586-.42-.07 2.21 1.234 2.463.87zm16.22 3.503c-1.535 0-2.78 1.33-2.78 2.972 0 1.64 1.245 2.97 2.78 2.97 1.534 0 2.78-1.33 2.78-2.97 0-1.642-1.246-2.972-2.78-2.972z"/></svg>