<svg fill="#262626" xmlns="http://www.w3.org/2000/svg" viewBox="0 0 96 96"><title>icons_</title><path d="M13.036 56.166h-2.993A5.985 5.985 0 0 0 4.06 62.15v11.91a5.985 5.985 0 0 0 5.983 5.986h2.993a5.984 5.984 0 0 0 5.984-5.985V62.15a5.984 5.984 0 0 0-5.984-5.984zm1.496 17.895a1.498 1.498 0 0 1-1.496 1.497h-2.993a1.498 1.498 0 0 1-1.496-1.496V62.15a1.498 1.498 0 0 1 1.496-1.496h2.993a1.498 1.498 0 0 1 1.496 1.497zM37.383 38.273H34.39a5.985 5.985 0 0 0-5.983 5.985v29.476a5.985 5.985 0 0 0 5.984 5.985h2.993a5.984 5.984 0 0 0 5.984-5.986V44.258a5.984 5.984 0 0 0-5.984-5.985zm1.496 35.46a1.498 1.498 0 0 1-1.497 1.498H34.39a1.498 1.498 0 0 1-1.495-1.496V44.258a1.498 1.498 0 0 1 1.496-1.496h2.993a1.498 1.498 0 0 1 1.496 1.496zM86.08 34.286h-2.993a5.984 5.984 0 0 0-5.985 5.984v33.714a5.984 5.984 0 0 0 5.985 5.984h2.992a5.985 5.985 0 0 0 5.983-5.984V40.27a5.985 5.985 0 0 0-5.984-5.984zm1.495 39.698a1.498 1.498 0 0 1-1.496 1.496h-2.993a1.498 1.498 0 0 1-1.496-1.496V40.27a1.498 1.498 0 0 1 1.497-1.496h2.992a1.498 1.498 0 0 1 1.495 1.496zM61.73 48h-2.99a5.984 5.984 0 0 0-5.985 5.984v19.75a5.984 5.984 0 0 0 5.984 5.985h2.99a5.985 5.985 0 0 0 5.986-5.986v-19.75A5.985 5.985 0 0 0 61.73 48zm1.497 25.734a1.498 1.498 0 0 1-1.496 1.497h-2.99a1.498 1.498 0 0 1-1.497-1.496v-19.75a1.498 1.498 0 0 1 1.496-1.496h2.99a1.498 1.498 0 0 1 1.497 1.496zM8.74 36.74l20.015-15.66L58.12 37.61a2.243 2.243 0 0 0 2.18.013l24.808-13.588-.734 3.463a2.246 2.246 0 0 0 1.727 2.662 2.358 2.358 0 0 0 .47.05 2.242 2.242 0 0 0 2.193-1.78l1.832-8.628a2.246 2.246 0 0 0-1.727-2.662l-8.904-1.89a2.244 2.244 0 0 0-.935 4.39l3.43.728-23.225 12.72-29.583-16.655a2.233 2.233 0 0 0-2.483.187L5.974 33.204A2.244 2.244 0 1 0 8.74 36.74z"/></svg>