<svg fill="#262626" xmlns="http://www.w3.org/2000/svg" viewBox="0 0 272 272" fill-rule="evenodd" clip-rule="evenodd" shape-rendering="geometricPrecision" text-rendering="geometricPrecision" image-rendering="optimizeQuality"><defs><style>.fil0 {fill:#262626}</style></defs><path class="fil0" d="M80 12c5 5 11 11 17 18 6-3 13-5 20-6 1-9 3-17 5-23 4-1 9-1 14-1s9 0 14 1c2 6 3 14 5 23 7 1 14 3 20 6 6-7 11-13 16-18 9 4 17 8 25 14-2 7-5 14-8 23 6 4 10 9 15 15 8-4 16-6 23-8 5 8 10 16 14 24-5 5-11 11-18 17 2 6 4 13 5 20 9 1 17 3 24 5 0 4 1 9 1 14s-1 9-1 14c-7 2-15 3-24 5-1 7-3 14-5 20 7 6 13 11 18 16-4 9-9 17-14 25-7-2-15-5-23-8-5 6-9 10-15 15 3 8 6 16 8 23-8 5-16 10-25 14-5-5-10-11-16-18-6 2-13 4-20 5-2 9-3 17-5 24-5 0-9 1-14 1s-10-1-14-1c-2-7-4-15-5-24-7-1-14-3-20-5-6 7-12 13-17 18-8-4-16-9-24-14 2-7 4-15 8-23-6-5-11-9-15-15-9 3-16 6-23 8-6-8-10-16-14-25 5-5 11-10 18-16-3-6-5-13-6-20-9-2-17-3-23-5-1-5-1-9-1-14s0-10 1-14c6-2 14-4 23-5 1-7 3-14 6-20-7-6-13-12-18-17 4-8 8-16 14-24 7 2 14 4 23 8 4-6 9-11 15-15-4-9-6-16-8-23 8-6 16-10 24-14zm56 52c40 0 72 32 72 72s-32 72-72 72-72-32-72-72 32-72 72-72z"/></svg>