<svg fill="#262626" xmlns="http://www.w3.org/2000/svg" viewBox="0 0 65 65"><path d="M43.9 38.7c1.9 0 3.4-1.5 3.4-3.4s-1.5-3.4-3.4-3.4-3.4 1.5-3.4 3.4c0 1.8 1.5 3.4 3.4 3.4zm0-5.4c1.1 0 1.9.9 1.9 1.9 0 1.1-.9 1.9-1.9 1.9-1.1 0-1.9-.9-1.9-1.9 0-1 .8-1.9 1.9-1.9zM55.7 52.9l1.1 1.1 1.7-1.8v4.3H60v-4.3l1.8 1.8 1.1-1.1-3.6-3.5M58.5 61H60v1.5h-1.5zM58.5 58H60v1.5h-1.5zM6.2 47.1l1 1.1L9 46.4v4.3h1.5v-4.3l1.8 1.8 1-1.1-3.6-3.5M9 52.2h1.5v1.5H9zM9 55.2h1.5v1.5H9zM26.2 56.7l1.1 1.1 1.4-1.4v3.5h1.5v-3.5l1.4 1.4 1-1.1-3.2-3.2M28.7 61.2h1.5v1.5h-1.5z"/><path d="M65.3 27.2c0-8-6.5-14.6-14.6-14.6-.9 0-2.3.2-3.2.4-1.7-6.2-7.5-10.7-14-10.7-6.3 0-11.8 4.1-13.8 10-1-.3-2-.5-3-.5-7.5 0-9.1 6.6-9.4 8.6-4.4 1.2-7.5 5.2-7.5 9.8 0 5.6 4.5 10.1 10.1 10.1 1.3 0 2.5-.2 3.7-.7 1.1 1.2 2.6 2.1 4.3 2.5v9.2h34.8v-9.7c7.1-1 12.6-7.2 12.6-14.4zM13 35.7l-1.4.4c.2.8.6 1.5 1 2.2-.9.3-1.8.4-2.7.4-4.7 0-8.6-3.9-8.6-8.6 0-4.1 2.9-7.6 6.9-8.4l.6-.1V21c0-.3.6-7.7 8-7.7.9 0 1.8.2 2.6.4-.2 1-.3 2.1-.3 3.1h1.5c0-1.1.1-2.3.4-3.4 1.5-5.7 6.7-9.7 12.6-9.7C39.7 3.7 45 8 46.3 13.9l.2.7.7-.2s2.4-.5 3.6-.5c7.2 0 13.1 5.9 13.1 13.1 0 6.4-4.8 11.9-11.1 12.9V27.7h-35v12.8c-2.3-.7-4.1-2.4-4.8-4.8zm38.1 9.5l-3.4-3.5-3.5 3.6-8.8-8.8-5 5.9-3.5-3.6-7.5 7.6V29.2h31.8v16zm-31.8 4.6v-1.2l7.5-7.6 3.6 3.6 5-5.9 8.7 8.8 3.5-3.6 3.4 3.5v2.4H19.3z"/></svg>