<svg fill="#262626" xmlns="http://www.w3.org/2000/svg" viewBox="0 0 164 164"><g fill-rule="evenodd" clip-rule="evenodd"><path d="M18.767 164h126.147c8.407 0 15.285-6.88 15.285-15.286V63.01c0-8.407-6.88-15.286-15.286-15.286H18.767c-8.407 0-15.286 6.878-15.286 15.286v85.704C3.48 157.12 10.36 164 18.768 164zM94.5 96.225l-8.178 1.297c-.68-1.753-1.07-2.486-2.745-3.39v6.353c4.456 1.187 7.428 2.438 8.93 3.76 4.835 4.34 3.448 11.84-1.743 15.18-2.022 1.302-4.467 1.862-7.187 1.965v4.156h-3.21v-4.156c-6.576-.573-10.956-3.087-12.156-9.776l8.885-1.036c.444 2.45.958 3.733 3.27 4.854v-7.758c-2.956-.818-5.056-1.53-6.294-2.13-5.4-2.62-6.075-10.206-1.845-14.28 1.823-1.748 4.54-2.723 8.14-2.91v-2.176h3.212v2.176c5.32.328 9.672 2.272 10.924 7.87zm9.16 48.995H60.02c-9.653 0-17.538-7.885-17.538-17.54V84.044c0-9.654 7.885-17.54 17.54-17.54h43.637c9.652 0 17.537 7.886 17.537 17.54v43.638c0 9.654-7.884 17.54-17.538 17.54zm-43.64-7.452c-5.54 0-10.085-4.547-10.085-10.087V84.044c0-5.54 4.546-10.087 10.086-10.087h43.64c5.54 0 10.085 4.547 10.085 10.087v43.638c0 5.54-4.546 10.088-10.086 10.088H60.02zm20.346-43.742v5.626c-.923-.322-1.568-.72-1.943-1.2-1.526-1.92-.076-3.764 1.943-4.426zm3.21 21.63v-7.037c1.427.502 2.38 1.034 2.867 1.612.495.585.742 1.215.742 1.906 0 .787-.292 1.507-.87 2.146-.578.638-1.493 1.096-2.738 1.372zM81.84 131.64c-14.234 0-25.777-11.544-25.777-25.778 0-14.233 11.543-25.776 25.777-25.776 14.234 0 25.777 11.543 25.777 25.776 0 14.234-11.543 25.777-25.777 25.777zM41.525 43.24c0-.144-.005-.29-.005-.434 0-56.648 80.64-56.648 80.64 0 0 .146-.004.29-.005.435h-16c-.062-34.568-48.05-35.123-48.63 0h-16z"/></g></svg>