<svg xmlns="http://www.w3.org/2000/svg" data-name="Layer 6" viewBox="0 0 32 32"><title>finance</title><path d="M22.5 26H10.71A8.354 8.354 0 0 0 13 19.994 15.046 15.046 0 0 0 12.287 16H20.5a.5.5 0 0 0 0-1h-8.516l-.065-.214A15.298 15.298 0 0 1 11 10.5 5.507 5.507 0 0 1 16.5 5a7.58 7.58 0 0 1 5.6 2.798.5.5 0 0 0 .802-.595A8.46 8.46 0 0 0 16.5 4a6.508 6.508 0 0 0-6.5 6.5 15.688 15.688 0 0 0 .938 4.5H9.5a.5.5 0 0 0 0 1h1.742A14.904 14.904 0 0 1 12 20.008a7.703 7.703 0 0 1-2.836 6.122.5.5 0 0 0 .336.87h13a.5.5 0 0 0 0-1z"/></svg>