<svg xmlns="http://www.w3.org/2000/svg" xmlns:xlink="http://www.w3.org/1999/xlink" version="1.1" x="0px" y="0px" viewBox="0 0 100 125" style="enable-background:new 0 0 100 100;" xml:space="preserve"><path d="M50,22.9c-10.2,0-18.4,8.3-18.4,18.4c0,10.2,8.3,18.4,18.4,18.4c10.2,0,18.4-8.3,18.4-18.4  C68.4,31.1,60.2,22.9,50,22.9z M50,55.6c-7.9,0-14.3-6.4-14.3-14.3c0-1.2,0.2-2.4,0.5-3.5c1.7,0.8,4.7,2,8.2,2  c2.5,0,5.2-0.6,7.8-2.4c0.3-0.2,6.6-4.7,11.6-0.2c0.4,1.3,0.6,2.7,0.6,4.1C64.3,49.2,57.9,55.6,50,55.6z"/><polygon points="52.4,72.9 46.6,77.1 45.4,81.9 53.2,76.3 "/><path d="M53.7,78.1l-7.2,5.1l3.6,3.2c0,0,0.1,0.1,0.2,0.1c0.1,0,0.1,0,0.2-0.1l4.1-4.2c0.1-0.1,0.1-0.2,0.1-0.2  L53.7,78.1z"/><path d="M48.7,68.4l-1.5,6.2l4.9-3.4l-0.6-2.7l2-2.4c0.1-0.1,0.1-0.2,0-0.3l-1.3-3c0-0.1-0.1-0.1-0.2-0.1H48  c-0.1,0-0.2,0.1-0.2,0.2l-1.2,3c0,0.1,0,0.2,0,0.3L48.7,68.4z"/><path d="M50,1.2C23.3,1.2,1.6,22.9,1.6,49.6S23.3,98,50,98c26.7,0,48.4-21.7,48.4-48.4S76.7,1.2,50,1.2z M80.3,71.7  c-2.7-5.4-7.7-9-13.5-9h-7.1l-5.1,27.1h-9.2l-5.1-27.1h-7.1c-5.8,0-10.8,3.6-13.5,9c-4.5-6.2-7.2-13.8-7.2-22  c0-20.7,16.8-37.5,37.5-37.5c20.7,0,37.5,16.8,37.5,37.5C87.5,57.9,84.8,65.5,80.3,71.7z"/></svg>