<svg fill="#262626" xmlns="http://www.w3.org/2000/svg" viewBox="0 0 1152.7137 1152.4399"><path d="M523.194 1150.697c-109.212-10.84-207.53-48.914-293.707-113.738C98.894 938.723 17.78 792.893 1.977 627.925c-3.7-38.636-2.09-95.627 3.85-136.16 28.578-195.03 157.01-363.43 338.035-443.237 45.52-20.07 99.233-35.58 147.913-42.713 52.93-7.756 116.243-7.756 169.174 0 195.027 28.578 363.428 157.01 443.235 338.035 20.07 45.52 35.58 99.233 42.712 147.913 7.756 52.93 7.756 116.243 0 169.174-21.97 149.94-103.985 287.032-226.113 377.96-85.78 63.867-184.115 101.42-292.848 111.836-23.893 2.29-81.506 2.268-104.742-.04zM753.368 778.62c-3.27-39.222-21.433-78.276-49.797-107.074-74.753-75.9-201.627-69.995-266.91 12.423-5.665 7.153-11.496 15.257-12.956 18.007-1.46 2.75-3.036 5.28-3.5 5.625-.467.344-1.754 2.594-2.862 5-6.28 13.64-8.48 18.677-8.48 19.418 0 .456-.782 2.602-1.738 4.768-2.685 6.087-8.065 31.587-8.94 42.376l-.785 9.688h356.82l-.852-10.23zm-360.76-33.83c1.582-6.36 3.612-13.25 4.513-15.313.902-2.063 3.353-7.79 5.448-12.728 4.892-11.528 14.722-28.536 22.157-38.336 8.96-11.81 29.9-31.825 42.326-40.457 6.153-4.273 12.28-8.544 13.618-9.49 2.27-1.606 1.867-2.036-6.127-6.506-39.912-22.32-90.432-26.37-133.032-10.662-56.07 20.674-95.54 69.285-104.578 128.804-.992 6.53-1.807 12.86-1.81 14.062-.01 2.06 4.504 2.188 77.302 2.188h77.31l2.876-11.563zm524.997 9.374c0-1.203-.82-7.53-1.81-14.062-9.04-59.52-48.51-108.13-104.58-128.804-42.6-15.707-93.12-11.658-133.032 10.663-7.994 4.47-8.398 4.9-6.127 6.507 1.337.946 7.465 5.217 13.617 9.49C698.1 646.59 719.04 666.603 728 678.414c7.434 9.8 17.264 26.808 22.156 38.335 2.095 4.937 4.546 10.664 5.447 12.727.9 2.062 2.93 8.953 4.513 15.312l2.876 11.562h77.31c72.798 0 77.31-.128 77.303-2.188zM595.933 588.89c55.956-13.416 83.46-73.465 56.96-124.357-3.147-6.044-7.948-12.19-15.306-19.593-9.03-9.086-12.585-11.688-22.536-16.496-50.616-24.46-109.54 2.062-123.166 55.438-3.06 11.985-3.068 32.392-.017 43.095 13.016 45.663 58.637 72.805 104.066 61.913zm-182.09-14.486c14.657-3.454 25.786-9.795 36.94-21.045 11.48-11.58 16.947-20.932 20.61-35.253 4.677-18.29 2.244-39.16-6.517-55.898-5.358-10.236-21.636-26.514-31.872-31.872-22.42-11.736-50.864-11.736-73.284 0-10.236 5.358-26.514 21.636-31.872 31.87-8.76 16.74-11.194 37.61-6.517 55.9 3.664 14.32 9.132 23.673 20.61 35.25 10.966 11.06 22.256 17.575 36.38 20.992 9.865 2.386 25.53 2.41 35.523.055zm360 0c14.657-3.454 25.786-9.795 36.94-21.045 11.48-11.58 16.947-20.932 20.61-35.253 4.677-18.29 2.244-39.16-6.517-55.898-5.358-10.236-21.636-26.514-31.87-31.872-22.422-11.736-50.866-11.736-73.286 0-10.236 5.358-26.514 21.636-31.872 31.87-8.76 16.74-11.194 37.61-6.517 55.9 3.664 14.32 9.132 23.673 20.61 35.25 10.966 11.06 22.256 17.575 36.38 20.992 9.865 2.386 25.53 2.41 35.523.055z"/></svg>