<svg fill="#262626" xmlns="http://www.w3.org/2000/svg" version="1" viewBox="0 0 32 32"><path d="M26 26v4H6v-4c0-5.043 1.59-4.29 7.562-6.867C11.465 17.625 10 14.445 10 12c0-3.312 2.684-6 6-6 3.312 0 6 2.688 6 6 0 2.445-1.47 5.625-3.566 7.133C24.406 21.71 26 20.957 26 26zm-1.566-10.867C26.53 13.625 28 10.445 28 8c0-3.312-2.688-6-6-6-1.84 0-3.484.832-4.586 2.133C21.152 4.805 24 8.073 24 12c0 2.113-.828 4.477-2.117 6.355l.465.172C26.164 19.95 28 20.86 28 26h4v-4c0-5.043-1.594-4.29-7.566-6.867zm-14.32 3.222C8.827 16.477 8 14.113 8 12c0-3.926 2.848-7.195 6.582-7.867C13.484 2.833 11.84 2 10 2 6.684 2 4 4.688 4 8c0 2.445 1.465 5.625 3.562 7.133C1.59 17.71 0 16.957 0 22v4h4c0-5.14 1.832-6.05 5.648-7.473.153-.054.31-.113.465-.172z"/></svg>